# xmcd CD database file
#
# Track frame offsets:
#	150
#	18560
#	40828
#	59042
#	77638
#	92959
#	112839
#	129126
#	143287
#	159626
#	177386
#	193487
#	223634
#
# Disc length: 3178 seconds
#
# Revision: 0
# Processed by: cddbd v1.5PL3 Copyright (c) Steve Scherf et al.
# Submitted via: CDex 1.51
#
DISCID=b20c680d
DTITLE=Lynn Harrison Quartet - Feminine Notes
DYEAR=1999
DGENRE=Jazz
TTITLE0=I DON'T KNOW ENOUGH ABOUT YOU
TTITLE1=WILLOW WEEP FOR ME
TTITLE2=THE NIHGT IS YOUNG
TTITLE3=WHO NEEDS SPRING
TTITLE4=WHAT A DIFFERENCE A DAY MAKES
TTITLE5=DON'T BLAME ME
TTITLE6=I'LL NEVER SMILE AGAIN
TTITLE7=WOULD I STILL BE ME
TTITLE8=CLOSE YOUR EYES
TTITLE9=LULLABY OF THE LEAVES
TTITLE10=CAN'T WE BE FRIENDS
TTITLE11=JANUARY BUTTERFLY
TTITLE12=FINE AND DANDY
EXTD=YEAR: 1999
EXTT0=
EXTT1=
EXTT2=
EXTT3=
EXTT4=
EXTT5=
EXTT6=
EXTT7=
EXTT8=
EXTT9=
EXTT10=
EXTT11=
EXTT12=
PLAYORDER=
